<svg width="159" height="155" viewBox="0 0 159 155" fill="none" xmlns="http://www.w3.org/2000/svg">
<rect y="5" width="150" height="150" rx="75" fill="#000357"/>
<path d="M122.362 118.16C111.951 122 101.498 123.92 91.0015 123.92C80.5055 123.92 72.9108 121.829 68.2175 117.648C63.6095 113.467 61.3055 107.024 61.3055 98.32C61.3055 94.6507 61.9028 89.232 63.0975 82.064C65.6575 67.216 70.1802 56.5067 76.6655 49.936C83.1508 43.3653 93.9028 40.08 108.922 40.08C112.164 40.08 116.218 40.4213 121.082 41.104C125.946 41.7867 129.53 42.5547 131.834 43.408L124.794 62.992C118.394 61.7973 112.506 61.2 107.13 61.2C101.839 61.2 98.0415 61.6267 95.7375 62.48C93.4335 63.3333 92.0682 65.04 91.6415 67.6L85.3695 103.824H93.4335C96.3348 103.824 98.4682 103.525 99.8335 102.928C101.284 102.245 102.223 100.752 102.65 98.448L103.29 94.992H97.1455L100.602 75.408H129.914L122.362 118.16ZM59.5135 81.424C59.3428 82.1067 59.1722 83.0453 59.0015 84.24L8.6975 78.864H59.8975L59.5135 81.424ZM58.1055 91.152C57.8495 93.1147 57.7215 94.9067 57.7215 96.528L7.2895 91.152H58.1055ZM62.9695 66.576L61.4335 71.824L11.7695 66.576H62.9695ZM57.8495 103.44C58.1908 105.829 58.4895 107.621 58.7455 108.816L8.9535 103.44H57.8495ZM68.2175 54.288C67.0228 56.5067 66.1695 58.2133 65.6575 59.408L17.7855 54.288H68.2175ZM61.6895 115.856C62.7988 117.819 64.0788 119.397 65.5295 120.592L21.2415 115.856H61.6895ZM80.3775 42C77.9028 43.536 75.9828 44.944 74.6175 46.224L35.4495 42H80.3775Z" fill="white"/>
</svg>
